<svg xmlns="http://www.w3.org/2000/svg" width="108.587" height="100.317" viewBox="0 0 108.587 100.317">
  <g id="Group_8534" data-name="Group 8534" transform="translate(-121.749 -447.714)">
    <path id="Path_15365" data-name="Path 15365" d="M121.749,530.925a3.918,3.918,0,0,1,4.206-2.133c.659.061,1.328.009,2.129.009v-1.425c0-18.193.061-36.386-.046-54.579a8.282,8.282,0,0,1,8.479-8.449c3.354.071,6.712.005,10.068.019,1.208,0,1.9.635,1.9,1.657a1.485,1.485,0,0,1-1.182,1.541,6.253,6.253,0,0,1-1.366.123c-3.179.009-6.36.071-9.537-.014a4.875,4.875,0,0,0-5.1,5.12q.031,27.555.01,55.109v.814h5.253v-1.3q0-25.7,0-51.4c0-2.342.837-3.177,3.186-3.178q5.67,0,11.34,0h1.254a23.673,23.673,0,0,1,7.786-18.973,22.762,22.762,0,0,1,13.163-6,23.822,23.822,0,0,1,25.4,16.5h1.219c5.3,0,10.6-.01,15.9,0a8.024,8.024,0,0,1,8.036,6.622,10.087,10.087,0,0,1,.094,1.9q.008,27.183,0,54.367V528.8c.878,0,1.712.06,2.535-.012a3.356,3.356,0,0,1,3.847,3.781c-.119,1.936-.014,3.885-.026,5.828a9.672,9.672,0,0,1-8.864,9.523c-.879.066-1.763.1-2.645.1q-43.08.009-86.16,0a11.888,11.888,0,0,1-5.071-.856,9.822,9.822,0,0,1-5.572-6.544c-.077-.269-.16-.536-.239-.8Zm76.72-51.986c1.416.415,3.035.31,3.671,1.99.643,1.7-.461,2.7-1.528,3.74.3.317.535.575.782.822,1.5,1.5,3.011,2.985,4.487,4.505a2.563,2.563,0,0,1,.028,3.936q-1.689,1.756-3.445,3.449a2.6,2.6,0,0,1-4.011-.048c-1.463-1.435-2.9-2.9-4.352-4.342-.291-.291-.6-.568-.888-.843-2.728,2.3-3.788,2.259-5.46-.18-6.99,3.712-14.194,4.24-21.449.958s-11.632-9.038-13.518-16.691H139.851v52.506h72.387v-1.3q0-14.785,0-29.569c0-1.517.515-2.279,1.562-2.319,1.08-.041,1.663.772,1.663,2.325q0,14.785,0,29.569v1.295h5.252v-1.085q0-27.343.019-54.686a4.973,4.973,0,0,0-5.244-5.307c-4.979.1-9.962.026-14.943.029-.343,0-.687.036-1.051.055l.248,5.089h1.161q5.828,0,11.658,0c1.966,0,2.9.954,2.9,2.935q.005,3.074,0,6.147c0,2.544-.009,5.087.006,7.63a1.708,1.708,0,0,1-.69,1.567,1.542,1.542,0,0,1-1.7.1,1.632,1.632,0,0,1-.848-1.584c.012-4.062.006-8.126.005-12.188v-1.208H199.214ZM124.876,532.2c.084,2.461.065,4.856.281,7.229a5.762,5.762,0,0,0,2.933,4.315,7.38,7.38,0,0,0,4.159.96q43.386-.021,86.772-.01c.565,0,1.131,0,1.695-.008a6.191,6.191,0,0,0,6.137-5.242,69.413,69.413,0,0,0,.182-7.075c0-.054-.083-.108-.117-.151H188.741c0,1.142,0,2.2,0,3.249-.008,2.413-1.271,3.828-3.659,3.847q-9.058.073-18.117,0c-2.4-.018-3.668-1.426-3.676-3.83,0-1.083,0-2.166,0-3.285Zm62.343-43.892c-.457-2.628-.894-5.2-1.355-7.76a2.646,2.646,0,0,1,3.167-3.209c.936.167,1.867.363,2.8.521,1.1.186,2.2.346,3.26.512a20.387,20.387,0,1,0-7.876,9.936Zm10.832-6.034-8.8-1.535c.527,3.019,1.03,5.907,1.555,8.919.325-.233.518-.368.707-.507a2.537,2.537,0,0,1,3.543.157c.342.3.656.64.98.965,1.465,1.469,2.93,2.94,4.242,4.258l2.892-2.635c-1.635-1.632-3.186-3.272-4.837-4.8-1.522-1.414-1.812-3-.352-4.49C198.018,482.565,198.01,482.477,198.051,482.278Zm-31.382,53.663h18.668V532.23H166.669Z" fill="#72a443"/>
    <path id="Path_15366" data-name="Path 15366" d="M164.718,519.555c2.9,0,5.794.058,8.688-.021a3.325,3.325,0,0,1,3.6,3.611c-.1,1.583-.009,3.177-.022,4.767a3.038,3.038,0,0,1-2.784,3.166,9.244,9.244,0,0,1-1.267.071q-8.265.008-16.529,0a8.494,8.494,0,0,1-1.684-.14,3,3,0,0,1-2.359-2.885c-.031-1.766-.02-3.532-.008-5.3a3.1,3.1,0,0,1,3.257-3.262C158.643,519.535,161.68,519.555,164.718,519.555Zm8.975,3.4H155.634v4.775h18.058Z" transform="translate(-4.548 -10.678)" fill="#72a443"/>
    <path id="Path_15367" data-name="Path 15367" d="M201.979,519.554c2.932,0,5.865.057,8.794-.02a3.323,3.323,0,0,1,3.577,3.629c-.1,1.583-.008,3.178-.022,4.767a3.042,3.042,0,0,1-2.8,3.152,9.389,9.389,0,0,1-1.267.068q-8.265.006-16.529,0a8.9,8.9,0,0,1-1.475-.108A2.993,2.993,0,0,1,189.7,528.1c-.03-1.73-.015-3.461-.008-5.191a3.124,3.124,0,0,1,3.382-3.353C196.046,519.542,199.013,519.554,201.979,519.554Zm-8.994,8.176h18.06v-4.778h-18.06Z" transform="translate(-10.101 -10.678)" fill="#72a443"/>
    <path id="Path_15368" data-name="Path 15368" d="M182.4,459.827c0-.554-.037-1.117.009-1.673a1.609,1.609,0,0,1,1.59-1.532,1.67,1.67,0,0,1,1.625,1.52c.047.488.009.983.009,1.478.932.358,1.827.656,2.677,1.048a5.581,5.581,0,0,1,1.394.944,1.546,1.546,0,0,1,.19,2.19,1.61,1.61,0,0,1-2.179.362c-.488-.279-.971-.566-1.466-.833a3.242,3.242,0,0,0-.552-.173v7.387c3.906,1.188,6.433,3.451,6.1,7.918-.231,3.129-2.466,5.715-6.158,6.926,0,.5.016,1.05,0,1.6a1.633,1.633,0,1,1-3.252.017c-.021-.487,0-.976,0-1.514a9.589,9.589,0,0,1-4.907-1.7,2.661,2.661,0,0,1-.95-1.182,1.4,1.4,0,0,1,.589-1.675,1.641,1.641,0,0,1,1.891-.026,6.15,6.15,0,0,0,3.372,1.179V472.8c-.772-.423-1.515-.818-2.246-1.234a5.578,5.578,0,0,1-2.975-5.937,6.44,6.44,0,0,1,4.142-5.439c.162-.069.333-.116.5-.171S182.131,459.915,182.4,459.827Zm3.278,21.865a4.111,4.111,0,0,0,2.889-3.813,3.764,3.764,0,0,0-2.889-3.683Zm-3.33-18.265a3.322,3.322,0,0,0-1.986,3.273,2.3,2.3,0,0,0,1.986,2.127Z" transform="translate(-8.132 -1.325)" fill="#72a443"/>
  </g>
</svg>
