<svg xmlns="http://www.w3.org/2000/svg" width="46.264" height="40.403" viewBox="0 0 46.264 40.403">
  <g id="Group_8525" data-name="Group 8525" transform="translate(-229.418 -476)">
    <path id="Path_15324" data-name="Path 15324" d="M249.26,489.5c-.387-.371-.766-.726-1.136-1.089a1.119,1.119,0,0,1,1.46-1.695,9.074,9.074,0,0,1,.852.831,4.738,4.738,0,0,1,.363.5,16.811,16.811,0,0,1,8.329-3.66v-1.93h4.417v1.923a16.671,16.671,0,0,1,8.275,3.6c.381-.381.729-.764,1.118-1.1a1.78,1.78,0,0,1,.74-.409,1.038,1.038,0,0,1,1.148.566,1.091,1.091,0,0,1-.172,1.276c-.376.4-.8.759-1.216,1.154a16.4,16.4,0,0,1,4.282,13.566,16,16,0,0,1-6.046,10.643A16.531,16.531,0,0,1,249.26,489.5Zm25.66,11.305a13.559,13.559,0,1,0-13.634,13.53A13.529,13.529,0,0,0,274.921,500.809Z" transform="translate(-2.201 -0.924)" fill="#fff"/>
    <path id="Path_15325" data-name="Path 15325" d="M263.308,476c1.191,0,2.383,0,3.573,0a1.1,1.1,0,0,1,1.208,1.224q.005.985,0,1.97a1.1,1.1,0,0,1-1.2,1.227q-3.573.005-7.147,0a1.1,1.1,0,0,1-1.208-1.224q-.005-.985,0-1.97A1.107,1.107,0,0,1,259.78,476C260.956,476,262.132,476,263.308,476Z" transform="translate(-4.158)" fill="#fff"/>
    <path id="Path_15326" data-name="Path 15326" d="M235.346,499.977c1.573,0,3.146,0,4.719,0a1.106,1.106,0,0,1,.4,2.145,1.325,1.325,0,0,1-.446.07q-4.719.005-9.437,0a1.11,1.11,0,1,1,0-2.217C232.17,499.973,233.758,499.977,235.346,499.977Z" transform="translate(0 -3.425)" fill="#fff"/>
    <path id="Path_15327" data-name="Path 15327" d="M238.5,494.839c1.221,0,2.443-.006,3.664,0a1.088,1.088,0,0,1,1.089.921,1.1,1.1,0,0,1-.729,1.232,1.423,1.423,0,0,1-.447.063q-3.595.005-7.191,0a1.112,1.112,0,1,1,0-2.218C236.087,494.835,237.293,494.839,238.5,494.839Z" transform="translate(-0.612 -2.691)" fill="#fff"/>
    <path id="Path_15328" data-name="Path 15328" d="M236.77,507.336c-1.191,0-2.381,0-3.572,0a1.114,1.114,0,1,1-.009-2.219q3.573-.005,7.145,0a1.113,1.113,0,1,1,.008,2.219C239.152,507.338,237.96,507.336,236.77,507.336Z" transform="translate(-0.367 -4.158)" fill="#fff"/>
    <path id="Path_15329" data-name="Path 15329" d="M239.136,510.252c.824,0,1.648-.005,2.472,0a1.11,1.11,0,1,1,0,2.217q-2.519.008-5.036,0a1.11,1.11,0,1,1,0-2.217C237.427,510.247,238.282,510.252,239.136,510.252Z" transform="translate(-0.856 -4.892)" fill="#fff"/>
    <path id="Path_15330" data-name="Path 15330" d="M262.031,489.322v12.415H274.5a11.65,11.65,0,0,1-1.045,5.059,12.335,12.335,0,0,1-5.249,5.823,12.492,12.492,0,0,1-17.5-16.161A12.3,12.3,0,0,1,262.031,489.322Z" transform="translate(-2.872 -1.901)" fill="#fff"/>
  </g>
</svg>
