<svg xmlns="http://www.w3.org/2000/svg" width="100.454" height="100.49" viewBox="0 0 100.454 100.49">
  <g id="Group_8530" data-name="Group 8530" transform="translate(-224.057 -498.192)">
    <path id="Path_15352" data-name="Path 15352" d="M261.75,598.682a2.793,2.793,0,0,1-1.22-2.675c.074-2.284.022-4.573.022-6.873-.9-1.053-1.8-2.092-2.679-3.142a2.012,2.012,0,0,1-.559-1.8,1.97,1.97,0,0,1,3.346-1.038,52.716,52.716,0,0,1,3.445,4.014,2.582,2.582,0,0,1,.394,1.461c.043,1.989.018,3.979.018,6.039h15.588c.019-.259.056-.54.057-.82.005-1.961.025-3.922-.008-5.883a2.463,2.463,0,0,1,.795-1.918c1.03-1,2.043-2.026,3.053-3.05a13.444,13.444,0,0,0,3.991-9.609c.059-5.556.025-11.113.013-16.67,0-1.753-1.345-2.782-2.728-2.122a1.982,1.982,0,0,0-1.142,1.907c-.016,1.177,0,2.354-.007,3.53a1.989,1.989,0,1,1-3.96.025c-.009-2.223,0-4.445,0-6.668,0-.229.005-.457,0-.687a1.955,1.955,0,1,0-3.874-.031c-.023,1.242,0,2.484-.012,3.727a1.863,1.863,0,0,1-1.288,1.79,1.834,1.834,0,0,1-2.133-.531,2.937,2.937,0,0,1-.513-1.518c-.053-2.352-.02-4.706-.025-7.06,0-1.569-.774-2.556-1.967-2.533-1.166.023-1.908.981-1.911,2.49-.005,2.419.007,4.838-.007,7.256a1.925,1.925,0,0,1-1.282,1.9,1.851,1.851,0,0,1-2.135-.53,3.1,3.1,0,0,1-.52-1.612c-.038-5.066-.023-10.132-.023-15.2q0-3.676,0-7.354a5.706,5.706,0,0,0-.031-.881,1.916,1.916,0,0,0-3.821.044,8.269,8.269,0,0,0-.026,1.077q0,18.042,0,36.086a4.231,4.231,0,0,1-.08,1.166,1.978,1.978,0,0,1-3.245.862c-.667-.573-1.264-1.23-1.889-1.854-2.058-2.057-4.105-4.123-6.178-6.164a3.321,3.321,0,0,0-1.193-.8,1.805,1.805,0,0,0-2.065.749,1.92,1.92,0,0,0,.137,2.279c1.017,1.236,2.07,2.443,3.115,3.657a2.047,2.047,0,0,1,.535,1.989,1.972,1.972,0,0,1-3.356.844,46.723,46.723,0,0,1-3.738-4.407,5.774,5.774,0,0,1,1.083-7.846,5.856,5.856,0,0,1,7.785.172c.865.8,1.678,1.65,2.508,2.484.806.809,1.6,1.626,2.537,2.577V538.572a21.59,21.59,0,0,1-19.2,1.213,20.914,20.914,0,0,1-10.3-8.986,21.615,21.615,0,0,1,28.57-30.148,21.193,21.193,0,0,1,10.29,11.611,21.493,21.493,0,0,1-.034,15.362,15.414,15.414,0,0,1,1.856,2.395,6.612,6.612,0,0,1,.686,2.706c.083,2.972.031,5.948.031,8.922v1.128c3.707-.737,6.268.577,7.684,3.986,3.958-.965,6.584.774,7.884,3.96a6.6,6.6,0,0,1,3.633-.114,5.852,5.852,0,0,1,4.331,5.632c.012,5.72,0,11.44,0,17.161a17.278,17.278,0,0,1-5.057,12.36c-.9.943-1.87,1.826-2.788,2.717,0,2.566-.05,5.049.022,7.529a2.81,2.81,0,0,1-1.22,2.676Zm.145-72.1a17.571,17.571,0,1,0-30.445,3.52,36.61,36.61,0,0,1,3.025-2.3c1.093-.676,2.308-1.156,3.523-1.748-.158-.242-.329-.51-.508-.773a8.529,8.529,0,0,1-1.589-4.265,42.057,42.057,0,0,1,0-6.268,9.842,9.842,0,0,1,18.605-3.172c.989,1.941.94,4.016,1.013,6.112.106,3.016-.239,5.865-2.154,8.336-.012.016.011.059-.007-.02l4.8,2.476Zm-10.3-8.745c-.071-.949-.066-2-.242-3.026a5.794,5.794,0,0,0-5.68-4.749,5.674,5.674,0,0,0-5.666,4.738,32.7,32.7,0,0,0-.113,5.663,4.6,4.6,0,0,0,1.963,3.69c1.335.909,2.162,1.943,1.889,3.625a.32.32,0,0,0,.011.1,1.916,1.916,0,0,0,3.814.013,2.363,2.363,0,0,0,.031-.684,2.517,2.517,0,0,1,1.334-2.606,5.206,5.206,0,0,0,2.452-3.835C251.508,519.826,251.526,518.876,251.6,517.835Zm-.378,12.054c-1.179,2.324-2.935,3.7-5.579,3.7-2.679-.005-4.415-1.474-5.567-3.738a9.838,9.838,0,0,0-5.778,3.336,17.394,17.394,0,0,0,22.3.4v-.9A9.174,9.174,0,0,0,251.217,529.889Z" transform="translate(0 0)" fill="#72a443"/>
    <path id="Path_15353" data-name="Path 15353" d="M345.653,522.211a41.638,41.638,0,0,1-1.178,4.721c-2.958,7.936-8.631,12.853-16.975,14.247a21.6,21.6,0,0,1-7.5-42.538,21.648,21.648,0,0,1,25.434,17.722c.064.381.145.76.218,1.14Zm-7.415,8.017a17.565,17.565,0,1,0-28.284-.018,14.5,14.5,0,0,1,6.532-4.037c-.241-.361-.416-.629-.594-.893a8.407,8.407,0,0,1-1.568-4.171,41.072,41.072,0,0,1-.006-6.365,9.833,9.833,0,0,1,19.231-1.493c.535,1.836.253,3.7.364,5.548a10.447,10.447,0,0,1-2.11,7.164c-.03.039,0,.121,0,.258A14.5,14.5,0,0,1,338.238,530.229ZM330,517.787c-.07-.936-.066-1.957-.237-2.947a5.8,5.8,0,0,0-5.669-4.761,5.669,5.669,0,0,0-5.675,4.725,34.136,34.136,0,0,0-.1,5.76,4.419,4.419,0,0,0,1.792,3.469c1.368.979,2.258,2.013,2.1,3.849a1.814,1.814,0,0,0,1.9,1.743,2.011,2.011,0,0,0,1.872-1.71,2.309,2.309,0,0,0,.034-.683,2.592,2.592,0,0,1,1.4-2.669,5.138,5.138,0,0,0,2.38-3.773C329.919,519.823,329.935,518.842,330,517.787Zm-.348,12.076c-1.174,2.331-2.923,3.727-5.562,3.738-2.684.012-4.434-1.439-5.605-3.731a9.755,9.755,0,0,0-5.764,3.309c5.9,5.552,16.392,5.805,22.726.018A9.824,9.824,0,0,0,329.656,529.863Z" transform="translate(-21.142 -0.018)" fill="#72a443"/>
    <path id="Path_15354" data-name="Path 15354" d="M351.446,585.387c-.168.622-.329,1.246-.505,1.865a13.785,13.785,0,0,1-13.274,9.935c-3.787-.061-7.578-.094-11.362.024a2.112,2.112,0,0,1-2-3.257c.613-1.033,1.086-2.149,1.656-3.3a13.732,13.732,0,0,1-1.556-10.787,13.548,13.548,0,0,1,4.526-7.048,13.886,13.886,0,0,1,17.337-.249c.392-.515.787-1.03,1.177-1.547,1.383-1.83,2.537-1.875,4-.151v1.569l-2.338,3.064c.5,1.016,1.016,1.889,1.377,2.82.394,1.017.647,2.089.962,3.137Zm-7.622-9.53c-.275-.213-.494-.4-.733-.565a9.687,9.687,0,0,0-13.572,2.9,9.39,9.39,0,0,0,.192,10.777,2.452,2.452,0,0,1,.19,2.823c-.237.413-.417.86-.64,1.326a2.056,2.056,0,0,0,.366.087c2.746,0,5.492.044,8.236-.014a9.715,9.715,0,0,0,8.54-14.052c-.726.959-1.436,1.889-2.138,2.826-1.608,2.143-3.2,4.3-4.822,6.43a1.916,1.916,0,0,1-2.9.538,57.863,57.863,0,0,1-4.353-4.373,1.928,1.928,0,0,1,.976-3.025,2.03,2.03,0,0,1,2.153.57c.708.708,1.423,1.409,2.195,2.171Z" transform="translate(-26.935 -19.263)" fill="#72a443"/>
    <path id="Path_15355" data-name="Path 15355" d="M265.639,606.548a1.98,1.98,0,1,1-2-1.935A1.937,1.937,0,0,1,265.639,606.548Z" transform="translate(-10.147 -28.701)" fill="#72a443"/>
  </g>
</svg>
