<svg xmlns="http://www.w3.org/2000/svg" width="95.486" height="100.697" viewBox="0 0 95.486 100.697">
  <g id="Group_8528" data-name="Group 8528" transform="translate(-246.36 -433.146)">
    <path id="Path_15336" data-name="Path 15336" d="M314.417,531.674c-1.19-.314-2.395-.583-3.568-.948a22.762,22.762,0,0,1-16.058-23.169c.5-9.646,8.072-18.446,17.913-20.549a22.743,22.743,0,0,1,26.922,18.726c1.79,11.411-6.071,23.532-18.438,25.562a3.876,3.876,0,0,0-.872.378Zm1.145-24.543c-3.475.7-6.945-.56-10.2.848v2.2c3.233,1.532,6.785.122,10.2.909,0,2.593-.024,5.14.006,7.685.026,2.144.7,2.622,3.1,2,1.016-3.081.025-6.462.6-9.9.994,0,1.958,0,2.924,0,1.835-.005,3.671.035,5.5-.04a1.721,1.721,0,0,0,.105-3.437,15.2,15.2,0,0,0-2.157-.065c-2.134-.006-4.27,0-6.55,0,0-1.2,0-2.111,0-3.019,0-1.769.031-3.539-.023-5.306-.033-1.076-.468-1.966-1.722-1.972-1.221-.007-1.719.78-1.775,1.909-.023.458-.012.917-.012,1.376C315.56,502.538,315.561,504.761,315.561,507.131Z" transform="translate(1.967 2.169)" fill="#72a443"/>
    <path id="Path_15337" data-name="Path 15337" d="M250.314,533.843c-2.977-1.26-3.953-3.508-3.945-6.708q.119-43.927-.009-87.852c-.011-3.56,2.3-6.25,6.194-6.134,6.48.194,12.969.052,19.456.052h2.063v6.956H271.88c-4.847,0-9.7-.016-14.544.007-2.747.013-3.959,1.206-3.96,3.946q-.017,39.406,0,78.812c0,2.713,1.24,3.921,3.989,3.924q19.359.02,38.718.007h2.349l-.229.383,7.956,6.606Z" fill="#72a443"/>
    <path id="Path_15338" data-name="Path 15338" d="M256.464,522.82V443.257h17.174c.464,3.173,2.8,3.423,5.517,3.386,7.075-.095,14.152-.03,21.228-.037,3.041,0,3.647-.434,4.819-3.4h16.954V485c-10.24-.87-18.658,2.571-24.563,10.983-5.874,8.367-6.191,17.393-2.015,26.629C294.291,523.165,259.477,523.359,256.464,522.82Zm52.911-57.07c-2.2-3.069-4.412-6.071-6.523-9.144a6.646,6.646,0,0,0-5.988-3.062c-4.98.058-9.962.071-14.941-.005a6.771,6.771,0,0,0-6.126,3.181c-2.07,3.024-4.25,5.973-6.435,9.029-1.105,0-2.218-.042-3.327.008a4.338,4.338,0,0,0-4.382,4.364q-.1,3.437,0,6.88a4.2,4.2,0,0,0,4.023,4.266c1.024.113,2.056.148,3.1.219,1.172,3.08,3.271,4.948,6.481,5.045,3.494.105,5.7-1.905,6.973-5.033h14.317c1.186,3.1,3.3,4.952,6.513,5.034,3.476.088,5.708-1.89,6.954-5.089.98-.048,1.893-.063,2.8-.145a4.316,4.316,0,0,0,4.307-4.247,59.157,59.157,0,0,0-.006-7.072,4.356,4.356,0,0,0-4.545-4.224C311.524,465.722,310.479,465.75,309.375,465.75Zm-32.992,41.691q5.785,0,11.571,0c2.174,0,3.151-.577,3.118-1.821-.032-1.2-.922-1.717-3-1.718q-11.766-.006-23.535,0c-.521,0-1.183-.148-1.532.109a2.958,2.958,0,0,0-1.264,1.692c-.05.48.63,1.194,1.158,1.528a3.481,3.481,0,0,0,1.718.2C268.537,507.448,272.46,507.441,276.383,507.441Zm.067,5.137c-4.053,0-8.107-.007-12.16,0-1.871.005-2.7.6-2.638,1.844.054,1.152.827,1.652,2.619,1.7.065,0,.13,0,.2,0q11.866,0,23.732,0a7.344,7.344,0,0,0,1.174-.042c1.025-.166,1.851-.794,1.619-1.809-.147-.643-.982-1.2-1.622-1.63-.319-.214-.891-.06-1.348-.06Q282.235,512.576,276.449,512.578Zm-.029-17.339q-5.882,0-11.764,0a11.145,11.145,0,0,0-1.372.025,1.638,1.638,0,0,0-1.627,1.635,1.592,1.592,0,0,0,1.48,1.756,7.024,7.024,0,0,0,1.364.093q11.863.008,23.725,0a7.608,7.608,0,0,0,1.174-.053c1.034-.163,1.716-.75,1.637-1.835a1.655,1.655,0,0,0-1.677-1.6c-.455-.035-.914-.021-1.372-.021Q282.2,495.236,276.42,495.238Z" transform="translate(0.411 0.409)" fill="#72a443"/>
    <path id="Path_15339" data-name="Path 15339" d="M330.9,489.059l-6.964-3.043v-2.133q0-19.559,0-39.116c0-3.476-1.106-4.6-4.553-4.608-4.652-.01-9.3,0-13.956,0-.706,0-1.41,0-2.218,0v-6.835c.509-.038,1.067-.118,1.625-.118q10.123-.012,20.247,0c3.8.008,5.81,2.105,5.814,6.074q.019,19.557.005,39.116Z" transform="translate(2.31 0.002)" fill="#72a443"/>
    <path id="Path_15340" data-name="Path 15340" d="M300.522,443.469H276.475V433.313h24.047Z" transform="translate(1.224 0.007)" fill="#72a443"/>
    <path id="Path_15341" data-name="Path 15341" d="M313.16,468.387v8.366l-3.385.155c-1.355-3.277-3.534-5.308-7.171-5.168-3.284.127-5.233,2.07-6.467,5.047H281.963c-1.254-3.005-3.322-5.094-6.875-5.055-3.455.039-5.518,2.033-6.711,5.028h-3.332c-.63-2.794-.36-5.485-.177-8.373Z" transform="translate(0.743 1.432)" fill="#72a443"/>
    <path id="Path_15342" data-name="Path 15342" d="M286.812,465.106H273.134c.417-.643.728-1.163,1.078-1.657,1.171-1.649,2.448-3.232,3.506-4.95a3.837,3.837,0,0,1,3.907-1.965c1.68.109,3.373.024,5.188.024Z" transform="translate(1.088 0.95)" fill="#72a443"/>
    <path id="Path_15343" data-name="Path 15343" d="M303.654,465.1H289.928v-8.471c2.276,0,4.6-.031,6.923.029a1.718,1.718,0,0,1,1.16.638C299.867,459.793,301.669,462.335,303.654,465.1Z" transform="translate(1.77 0.954)" fill="#72a443"/>
    <path id="Path_15344" data-name="Path 15344" d="M274.794,481.77a3.494,3.494,0,0,1-3.395-3.562,3.6,3.6,0,0,1,3.452-3.356,3.559,3.559,0,0,1,3.484,3.509A3.481,3.481,0,0,1,274.794,481.77Z" transform="translate(1.017 1.695)" fill="#72a443"/>
    <path id="Path_15345" data-name="Path 15345" d="M301.52,481.775a3.372,3.372,0,0,1-3.364-3.53,3.477,3.477,0,0,1,3.345-3.4,3.582,3.582,0,0,1,3.514,3.48A3.454,3.454,0,0,1,301.52,481.775Z" transform="translate(2.105 1.694)" fill="#72a443"/>
  </g>
</svg>
