<svg xmlns="http://www.w3.org/2000/svg" width="29.624" height="39.998" viewBox="0 0 29.624 39.998">
  <g id="Group_8526" data-name="Group 8526" transform="translate(-312.285 -538.021)">
    <path id="Path_15331" data-name="Path 15331" d="M322.372,538.021q0,4.862.006,9.724a.729.729,0,0,1-.012.115,3.237,3.237,0,0,1-2.243,1.013,9.029,9.029,0,0,0-4.293,1.5,1.31,1.31,0,0,1-.153.074,2.262,2.262,0,0,1-.8-1.676c-.016-2.811-.037-5.623.009-8.435a2.349,2.349,0,0,1,1.6-2.162c.116-.05.23-.1.344-.153Z" transform="translate(-0.282)" fill="#fff"/>
    <path id="Path_15332" data-name="Path 15332" d="M340,538.021a5.793,5.793,0,0,1,.612.239,2.423,2.423,0,0,1,1.422,2.246c.012,2.706,0,5.412,0,8.118a2.449,2.449,0,0,1-.82,1.838,8.563,8.563,0,0,0-2.574-1.236,12.966,12.966,0,0,0-2.1-.4,3.394,3.394,0,0,1-2.014-.952v-9.858Z" transform="translate(-2.443)" fill="#fff"/>
    <path id="Path_15333" data-name="Path 15333" d="M331.107,538.021v8.369a6.679,6.679,0,0,0-5,.006v-8.375Z" transform="translate(-1.518)" fill="#fff"/>
    <path id="Path_15334" data-name="Path 15334" d="M327.038,549.652a5.405,5.405,0,0,1,2.549.771,11.426,11.426,0,0,1,1.353.986,5.451,5.451,0,0,0,3.162,1.17,5.737,5.737,0,0,1,3.382,1.35,3.761,3.761,0,0,1,1.1,1.818,12.641,12.641,0,0,1,.442,2.125,5.373,5.373,0,0,0,1.342,3.01,6.011,6.011,0,0,1,1.531,3.39,3.639,3.639,0,0,1-.151,1.226,5.477,5.477,0,0,1-1.243,2.4,6.079,6.079,0,0,0-1.552,3.816,5.414,5.414,0,0,1-1.311,3.155,3.678,3.678,0,0,1-1.743,1.07,10.91,10.91,0,0,1-2.046.444,5.565,5.565,0,0,0-3.163,1.369,6.338,6.338,0,0,1-3.16,1.506,4.07,4.07,0,0,1-2.054-.32,5.156,5.156,0,0,1-1.841-1.077,6.081,6.081,0,0,0-3.824-1.538,5.234,5.234,0,0,1-3.143-1.33,4.395,4.395,0,0,1-1.214-2.192,11.124,11.124,0,0,1-.3-1.721,5.3,5.3,0,0,0-1.341-3.01,5.923,5.923,0,0,1-1.512-3.316,3.883,3.883,0,0,1,.133-1.3,5.568,5.568,0,0,1,1.294-2.46,5.9,5.9,0,0,0,1.494-3.679,5.332,5.332,0,0,1,1.352-3.256,4.689,4.689,0,0,1,2.524-1.316c.581-.128,1.18-.174,1.771-.26a5.312,5.312,0,0,0,2.719-1.354A6.1,6.1,0,0,1,327.038,549.652Zm.019,24.07a9.236,9.236,0,1,0-9.2-9.259A9.252,9.252,0,0,0,327.057,573.722Z" transform="translate(0 -1.277)" fill="#fff"/>
    <path id="Path_15335" data-name="Path 15335" d="M328.07,558.711a6.769,6.769,0,1,1-6.772,6.807A6.77,6.77,0,0,1,328.07,558.711Zm-.7,6.521c-.279-.264-.457-.454-.654-.62a1.221,1.221,0,0,0-1.665.056,1.2,1.2,0,0,0-.063,1.662c.48.53.984,1.041,1.512,1.522a1.16,1.16,0,0,0,1.658-.023q1.8-1.763,3.56-3.56a1.2,1.2,0,0,0-.02-1.718,1.224,1.224,0,0,0-1.723,0c-.7.665-1.37,1.353-2.047,2.039C327.735,564.779,327.568,565,327.368,565.232Z" transform="translate(-0.99 -2.272)" fill="#fff"/>
  </g>
</svg>
