<svg xmlns="http://www.w3.org/2000/svg" width="98.099" height="100.403" viewBox="0 0 98.099 100.403">
  <g id="Group_8529" data-name="Group 8529" transform="translate(-163.932 -369.344)">
    <path id="Path_15346" data-name="Path 15346" d="M241.492,464.445V450.973l4.831-4.123v22.9H163.932v-100.4h59.119l23.376,23.308v10.737l-4.755,4.267v-9.88H218.487V375.12H168.835v89.325Zm-2.78-71.788-14.419-15.288v15.288Z" transform="translate(0 0)" fill="#72a443"/>
    <path id="Path_15347" data-name="Path 15347" d="M201.792,394.2v-3.391h5.183v3.639c7.473,1.845,13.177,5.255,13.218,14.157h-9.13c-.724-2.181-.836-4.859-3.838-5.859v12.742c1.7.874,3.557,1.749,5.337,2.752,3.25,1.831,6.143,4.1,7.218,7.863,1.52,5.325.02,13.279-8.314,16.142-1.422.488-2.868.908-4.375,1.381V448.5h-5.242v-4.856c-1.489-.365-2.768-.647-4.03-.993-6.247-1.713-10.036-6.7-9.745-13.049h8.962c.573,2.572,1.324,5.2,4.612,6.03.036-.4.088-.7.088-1.012.006-3.916,0-7.833,0-11.815-1.387-.683-2.7-1.316-3.994-1.974-1.064-.539-2.149-1.051-3.163-1.673-5.44-3.339-7.553-7.9-6.3-14.213,1.112-5.618,5.132-8.415,10.33-9.871C199.618,394.793,200.628,394.522,201.792,394.2Zm-.553,8.306a5.656,5.656,0,0,0-4.145,5.223c.006,2.242,1.508,3.989,4.145,4.822Zm5.931,22.964v9.792c2.065-1.157,3.545-2.55,3.71-4.759C211.061,428.072,209.46,426.661,207.169,425.473Z" transform="translate(-9.262 -8.285)" fill="#72a443"/>
    <path id="Path_15348" data-name="Path 15348" d="M284.17,443.46l10.778,9.506-22.428,25.75-14.26-12.585,22.384-25.519,2.18,1.876L263.638,464.42l1.188,1.027Z" transform="translate(-36.402 -27.503)" fill="#72a443"/>
    <path id="Path_15349" data-name="Path 15349" d="M255.337,485.557l13.186,11.487-8.978,3.888-7.2-6.3Z" transform="translate(-34.118 -44.848)" fill="#72a443"/>
    <path id="Path_15350" data-name="Path 15350" d="M313.153,446.472l-2.555,2.937-14.2-12.515,2.49-3Z" transform="translate(-51.121 -24.91)" fill="#72a443"/>
    <path id="Path_15351" data-name="Path 15351" d="M249.479,504.639l5.79,4.705-8.032,3.574Z" transform="translate(-32.148 -52.212)" fill="#72a443"/>
  </g>
</svg>
