<svg id="Group_9013" data-name="Group 9013" xmlns="http://www.w3.org/2000/svg" width="34.214" height="39.557" viewBox="0 0 34.214 39.557">
  <g id="Group_9012" data-name="Group 9012" transform="translate(0 0)">
    <path id="Path_23056" data-name="Path 23056" d="M471.344,322.268h26.611a3.8,3.8,0,0,0,3.8-3.8V291.856a3.8,3.8,0,0,0-3.8-3.8H471.344a3.8,3.8,0,0,0-3.8,3.8v26.611A3.8,3.8,0,0,0,471.344,322.268Z" transform="translate(-467.543 -288.054)" fill="#fff" fill-rule="evenodd"/>
    <path id="Path_23057" data-name="Path 23057" d="M491.97,325.146a1.06,1.06,0,0,0-.424,1.183,10.127,10.127,0,0,0,1.9,2.266l.465.408c.3.267.623.475.947.719.161.122.328.214.5.33a11.48,11.48,0,0,0,2.925,1.281,11.123,11.123,0,0,0,7.142-.49l1.17-.535c.171-.1.354-.2.536-.3.534-.292,1.21-.664,1.308-1.226a1.024,1.024,0,0,0-1.671-.957,10.866,10.866,0,0,1-2,1.069,8.956,8.956,0,0,1-9.4-1.352,17.067,17.067,0,0,1-2.23-2.355,1.074,1.074,0,0,0-1.169-.045" transform="translate(-482.944 -304.589)" fill="#426e1f" fill-rule="evenodd"/>
  </g>
  <path id="Path_23058" data-name="Path 23058" d="M527.041,360.375v5.391a.308.308,0,0,1-.522.223l-5.861-5.614Z" transform="translate(-499.26 -326.518)" fill="#fff"/>
</svg>
