<svg xmlns="http://www.w3.org/2000/svg" width="27.489" height="40.037" viewBox="0 0 27.489 40.037">
  <g id="Group_8524" data-name="Group 8524" transform="translate(-264.005 -196.749)">
    <path id="Path_15320" data-name="Path 15320" d="M331.541,196.749c.438.1.887.176,1.312.319a7.92,7.92,0,0,1,5.713,6.688,8.075,8.075,0,0,1-5.714,8.9l-.207.06v2.755c.431,0,.844.008,1.256,0a.659.659,0,0,1,.7.385.64.64,0,0,1-.2.772q-1.68,1.685-3.366,3.363a.633.633,0,0,1-1.022,0q-1.69-1.675-3.367-3.363a.638.638,0,0,1-.2-.771.658.658,0,0,1,.7-.385c.412.011.825,0,1.261,0v-2.714c-.507-.209-1.026-.38-1.5-.628a7.909,7.909,0,0,1-4.427-6.164,8.1,8.1,0,0,1,6.169-9.023c.286-.069.575-.129.863-.194Zm5.219,8.12a6.23,6.23,0,1,0-6.2,6.217A6.227,6.227,0,0,0,336.76,204.869Z" transform="translate(-52.303)" fill="#fff"/>
    <path id="Path_15321" data-name="Path 15321" d="M287.406,412.634a1.309,1.309,0,0,1-.1.157c-1.784,1.783-3.569,3.565-5.4,5.393-.686-.137-1.414-.254-2.128-.43a19.618,19.618,0,0,1-9.245-5.144c-2.019-1.989-4.016-4-6.015-6.011a1.567,1.567,0,0,1,.6-2.664,1.544,1.544,0,0,1,1.639.437q1.775,1.783,3.558,3.559c.442.441.888.876,1.32,1.3a3.2,3.2,0,0,0,2.505,2.747l1.954.518c1.064.284,2.128.571,3.193.852a.609.609,0,0,0,.817-.372c.113-.364-.065-.654-.486-.791-.025-.008-.05-.014-.075-.021l-3.231-.864c-.7-.187-1.408-.358-2.1-.566a1.914,1.914,0,0,1-1.371-1.875,1.874,1.874,0,0,1,1.4-1.805,2.361,2.361,0,0,1,1.036-.016c2.355.516,4.7,1.059,7.053,1.6a4.107,4.107,0,0,1,1.909.925C285.31,410.557,286.343,411.6,287.406,412.634Z" transform="translate(0 -185.512)" fill="#fff"/>
    <path id="Path_15322" data-name="Path 15322" d="M441.4,500.852a2.554,2.554,0,0,1-.494-.288q-.856-.826-1.685-1.681c-.346-.358-.314-.688.08-1.082q2.247-2.251,4.5-4.5c.488-.487.972-.978,1.463-1.461a.659.659,0,0,1,1.08-.012q.808.792,1.6,1.6a.655.655,0,0,1,0,1.079q-3,3.013-6.018,6.013A2.891,2.891,0,0,1,441.4,500.852Z" transform="translate(-156.736 -264.066)" fill="#fff"/>
    <path id="Path_15323" data-name="Path 15323" d="M362.318,231.539a5.008,5.008,0,1,1-10.015-.061,5.008,5.008,0,0,1,10.015.061Zm-5.6,1.867c-.031-.07-.06-.141-.094-.209a.576.576,0,0,0-.724-.359.627.627,0,0,0-.428.737,1.246,1.246,0,0,0,.794.984,4.189,4.189,0,0,0,.437.123c0,.184-.009.365,0,.545a.614.614,0,1,0,1.225.015c.012-.19,0-.382,0-.558,1.006-.291,1.25-.622,1.251-1.64,0-.234,0-.468,0-.7a1.293,1.293,0,0,0-1.431-1.421c-.346,0-.692,0-1.038,0v-1.252c.117-.006.206-.013.3-.013.3,0,.6,0,.9,0,.037.083.065.154.1.222a.576.576,0,0,0,.724.358.625.625,0,0,0,.426-.737,1.24,1.24,0,0,0-.793-.985,4.426,4.426,0,0,0-.436-.121c0-.173.006-.341,0-.508a.619.619,0,1,0-1.228-.014c-.008.177,0,.355,0,.519-.989.281-1.249.623-1.249,1.6,0,.234,0,.468,0,.7a1.3,1.3,0,0,0,1.47,1.46h1v1.252Z" transform="translate(-79.092 -26.672)" fill="#fff"/>
  </g>
</svg>
