<svg xmlns="http://www.w3.org/2000/svg" width="106.646" height="110.885" viewBox="0 0 106.646 110.885">
  <g id="Group_8533" data-name="Group 8533" transform="translate(-195.554 -290.682)">
    <circle id="Ellipse_218" data-name="Ellipse 218" cx="14.125" cy="14.125" r="14.125" transform="translate(226.331 325.184)" fill="#c6e8ab"/>
    <circle id="Ellipse_219" data-name="Ellipse 219" cx="4.164" cy="4.164" r="4.164" transform="translate(269.811 361.065)" fill="#c6e8ab"/>
    <g id="Group_8531" data-name="Group 8531" transform="translate(195.554 290.682)">
      <path id="Path_15356" data-name="Path 15356" d="M246.278,400.323v-14.78c3.708-1.483,7.754-1.242,11.715-1.2,3.922.038,7.84.489,12.143.786l-7.581-12.441H259.2q-25.3,0-50.6-.02a20.671,20.671,0,0,1-3.384-.573V327.466l-7.188,6.522-2.47-2.859L239.108,291c1.669-.737,2.6-.054,3.521.795q9.062,8.335,18.146,16.646,11.37,10.456,22.712,20.941c.6.553,1.125,1.186,1.861,1.969L283,333.959,275.7,327.4v23.273a12.4,12.4,0,0,0,1.434.451,13.568,13.568,0,0,1,9.04,20.657c-2.579,4.1-5.054,8.274-7.572,12.417-.382.629-.738,1.273-1.342,2.32,8.557.607,16.608-1.316,24.945-2.033v14.348c-1.3.27-2.639.658-4,.811-6.289.708-12.574,1.657-18.884,1.9a38,38,0,0,1-11.254-1.43,37.72,37.72,0,0,0-19.436-.182C247.941,400.105,247.229,400.169,246.278,400.323Zm-5.855-105.406-31.467,28.916v45.1h51.729a13.416,13.416,0,0,1,1.5-11.659c2.294-3.614,5.815-5.38,9.774-6.283V323.837Zm33.542,89.437a3.9,3.9,0,0,0,.628-.573c2.986-4.884,6.09-9.7,8.865-14.7a10.2,10.2,0,0,0,1.2-5.524,10.029,10.029,0,0,0-7.775-8.746c-4.562-1.074-8.423.143-11.326,3.825-2.773,3.519-2.773,7.4-.221,11.625,1.882,3.118,3.8,6.217,5.7,9.323C271.99,381.146,272.953,382.708,273.966,384.354Z" transform="translate(-195.554 -290.682)" fill="#72a443"/>
      <path id="Path_15357" data-name="Path 15357" d="M293.625,389.456V393.1h-5.954c-.107,2.237-.2,4.19-.3,6.271h-3.63l-.317-6.05h-5.874v-3.855h5.84c.123-2.174.234-4.128.348-6.141H287.5v6.133Z" transform="translate(-240.673 -341.66)" fill="#72a443"/>
    </g>
    <g id="Group_8532" data-name="Group 8532" transform="translate(251.788 389.203)">
      <path id="Path_15358" data-name="Path 15358" d="M384.605,515.633h6.936l.349,3.469h-7.286Z" transform="translate(-355.817 -512.987)" fill="#fff"/>
      <path id="Path_15359" data-name="Path 15359" d="M352.119,514.511c.225-1.286.4-2.283.636-3.64l7.055,1.271-.526,3.69Z" transform="translate(-337.941 -510.367)" fill="#fff"/>
      <path id="Path_15360" data-name="Path 15360" d="M422.7,511.117l.616,3.69-7.233,1.166c-.162-1.4-.283-2.45-.429-3.712Z" transform="translate(-372.901 -510.502)" fill="#fff"/>
      <path id="Path_15361" data-name="Path 15361" d="M327.915,513.231H321c-.122-1.034-.248-2.1-.411-3.481h7.322Z" transform="translate(-320.593 -509.75)" fill="#fff"/>
    </g>
  </g>
</svg>
