<svg xmlns="http://www.w3.org/2000/svg" width="51" height="40" viewBox="0 0 51 40">
  <g id="Group_8337" data-name="Group 8337" transform="translate(-317.395 -344.451)">
    <path id="Path_19900" data-name="Path 19900" d="M319.282,353.536c9.159-7.852,19.634-10.721,31.44-8.19a34.346,34.346,0,0,1,16.576,8.968c.087.082.175.164.259.25.957.975,1.1,1.976.4,2.761s-1.691.719-2.732-.166c-1.425-1.213-2.8-2.5-4.314-3.588a31.5,31.5,0,0,0-36.1.052c-1.353.973-2.585,2.117-3.871,3.186-.276.229-.52.5-.812.7a1.654,1.654,0,0,1-2.269-.167,1.713,1.713,0,0,1-.038-2.311C318.248,354.508,318.766,354.06,319.282,353.536Z" fill="#fff"/>
    <path id="Path_19901" data-name="Path 19901" d="M367.32,366.6a5.848,5.848,0,0,1,.7.924,1.576,1.576,0,0,1-.306,1.989,1.514,1.514,0,0,1-1.959.265,5.931,5.931,0,0,1-1.019-.819,24.372,24.372,0,0,0-32.174-1.444c-.717.566-1.348,1.243-2.042,1.84-.974.84-1.947.858-2.625.084a1.832,1.832,0,0,1,.334-2.671,27.425,27.425,0,0,1,17.952-8.019C354.2,358.3,361.17,360.943,367.32,366.6Z" transform="translate(-4.949 -7.101)" fill="#fff"/>
    <path id="Path_19902" data-name="Path 19902" d="M339.423,378.9a20.121,20.121,0,0,1,25.4-1.483,26.1,26.1,0,0,1,2.514,2.172,1.739,1.739,0,0,1,.271,2.557,1.7,1.7,0,0,1-2.6-.108,16.938,16.938,0,0,0-23.754-.2,3.415,3.415,0,0,1-1.157.777,1.457,1.457,0,0,1-1.756-.636,1.611,1.611,0,0,1,.047-2.013C338.659,379.631,338.995,379.343,339.423,378.9Z" transform="translate(-10.139 -14.516)" fill="#fff"/>
    <path id="Path_19903" data-name="Path 19903" d="M349.3,392.063a13.6,13.6,0,0,1,18.607.053c.922.91,1.032,1.878.3,2.641-.712.743-1.722.685-2.676-.153a10.1,10.1,0,0,0-13.9-.012c-.968.845-1.965.911-2.678.178-.753-.775-.618-1.777.369-2.728C349.382,391.987,349.438,391.929,349.3,392.063Z" transform="translate(-15.676 -21.871)" fill="#fff"/>
    <path id="Path_19904" data-name="Path 19904" d="M367.2,413.918a4.484,4.484,0,1,1-6.311-6.371,4.543,4.543,0,0,1,6.332.052A4.5,4.5,0,0,1,367.2,413.918Z" transform="translate(-21.119 -30.79)" fill="#fff"/>
  </g>
</svg>
