<svg xmlns="http://www.w3.org/2000/svg" width="33.661" height="40.035" viewBox="0 0 33.661 40.035">
  <g id="Group_8336" data-name="Group 8336" transform="translate(-70.099 -229.251)">
    <path id="Path_19898" data-name="Path 19898" d="M119.516,229.251a22.363,22.363,0,0,1,3.654,1.285,11.148,11.148,0,0,1,5.031,14.477,61.9,61.9,0,0,1-5.352,10.39c-1.367,2.213-2.819,4.374-4.236,6.556-.137.21-.3.4-.492.649-.145-.169-.254-.274-.337-.4a98,98,0,0,1-8.818-14.978,19.9,19.9,0,0,1-1.755-5.223c-.638-4.547,1.162-8.176,4.827-10.889a11.763,11.763,0,0,1,4.666-1.871Zm-5.808,10.739a4.389,4.389,0,1,0,4.438-4.589A4.5,4.5,0,0,0,113.708,239.99Z" transform="translate(-31.183)" fill="#fff"/>
    <path id="Path_19899" data-name="Path 19899" d="M92.617,404.581l.266-1.965a1.759,1.759,0,0,1,.459-.052,22.859,22.859,0,0,1,6.581,1.852,11.02,11.02,0,0,1,2.467,1.613c1.872,1.686,1.807,3.864-.081,5.542a11.5,11.5,0,0,1-3.957,2.137,31.924,31.924,0,0,1-8.874,1.622A37.579,37.579,0,0,1,75.9,413.836a12.189,12.189,0,0,1-4.156-2.093c-2.158-1.776-2.2-4.075-.085-5.916a8.6,8.6,0,0,1,1.271-.9,21.746,21.746,0,0,1,8.046-2.366l.322,2.014a25.414,25.414,0,0,0-2.549.518c-1.51.466-3.008.98-4.476,1.561a4.786,4.786,0,0,0-1.453,1.029,1.307,1.307,0,0,0,.054,2.206,8.734,8.734,0,0,0,1.885,1.228A22.931,22.931,0,0,0,82.286,413a42.68,42.68,0,0,0,9.2,0,23.235,23.235,0,0,0,7.677-1.933,8.329,8.329,0,0,0,1.931-1.295,1.251,1.251,0,0,0-.008-2.089,8.281,8.281,0,0,0-1.794-1.222,20.235,20.235,0,0,0-5.655-1.7Z" transform="translate(0 -146.121)" fill="#fff"/>
  </g>
</svg>
